<svg width="86" height="86" viewBox="0 0 86 86" fill="none" xmlns="http://www.w3.org/2000/svg">
<path d="M73.3768 32.25C72.4208 32.25 71.4745 32.4416 70.5938 32.8136C69.7131 33.1856 68.9159 33.7303 68.2493 34.4156L67.1926 35.5051L66.1256 34.4156C65.4591 33.7303 64.6619 33.1856 63.7813 32.8136C62.9006 32.4417 61.9543 32.25 60.9983 32.25C60.0423 32.25 59.096 32.4417 58.2154 32.8136C57.3347 33.1856 56.5375 33.7303 55.871 34.4156C54.5106 35.8191 53.7499 37.6968 53.7499 39.6514C53.7499 41.6059 54.5106 43.4837 55.871 44.8872L67.1926 56.4375L78.504 44.8872C79.8643 43.4837 80.625 41.6059 80.625 39.6514C80.625 37.6968 79.8643 35.8191 78.504 34.4156C77.8375 33.7303 77.0403 33.1856 76.1597 32.8137C75.279 32.4417 74.3328 32.25 73.3768 32.25Z" fill="white"/>
<path d="M73.3768 32.25C72.4208 32.25 71.4745 32.4416 70.5938 32.8136C69.7131 33.1856 68.9159 33.7303 68.2493 34.4156L67.1926 35.5051L66.1256 34.4156C65.4591 33.7303 64.6619 33.1856 63.7813 32.8136C62.9006 32.4417 61.9543 32.25 60.9983 32.25C60.0423 32.25 59.096 32.4417 58.2154 32.8136C57.3347 33.1856 56.5375 33.7303 55.871 34.4156C54.5106 35.8191 53.7499 37.6968 53.7499 39.6514C53.7499 41.6059 54.5106 43.4837 55.871 44.8872L67.1926 56.4375L78.504 44.8872C79.8643 43.4837 80.625 41.6059 80.625 39.6514C80.625 37.6968 79.8643 35.8191 78.504 34.4156C77.8375 33.7303 77.0403 33.1856 76.1597 32.8137C75.279 32.4417 74.3328 32.25 73.3768 32.25Z" stroke="black"/>
<path d="M5.375 80.625H10.75V67.1875C10.7542 63.6249 12.1713 60.2095 14.6904 57.6904C17.2095 55.1713 20.6249 53.7542 24.1875 53.75H40.3125C43.8751 53.7542 47.2905 55.1713 49.8096 57.6904C52.3287 60.2095 53.7458 63.6249 53.75 67.1875V80.625H59.125V67.1875C59.1192 62.1999 57.1353 57.4183 53.6085 53.8915C50.0817 50.3647 45.3001 48.3808 40.3125 48.375H24.1875C19.1999 48.3808 14.4183 50.3647 10.8915 53.8915C7.36473 57.4183 5.38083 62.1999 5.375 67.1875V80.625Z" fill="white"/>
<path d="M5.375 80.625H10.75V67.1875C10.7542 63.6249 12.1713 60.2095 14.6904 57.6904C17.2095 55.1713 20.6249 53.7542 24.1875 53.75H40.3125C43.8751 53.7542 47.2905 55.1713 49.8096 57.6904C52.3287 60.2095 53.7458 63.6249 53.75 67.1875V80.625H59.125V67.1875C59.1192 62.1999 57.1353 57.4183 53.6085 53.8915C50.0817 50.3647 45.3001 48.3808 40.3125 48.375H24.1875C19.1999 48.3808 14.4183 50.3647 10.8915 53.8915C7.36473 57.4183 5.38083 62.1999 5.375 67.1875V80.625Z" stroke="black"/>
<path d="M32.25 10.75C34.9077 10.75 37.5057 11.5381 39.7155 13.0146C41.9253 14.4912 43.6476 16.5898 44.6646 19.0452C45.6817 21.5006 45.9478 24.2024 45.4293 26.809C44.9108 29.4156 43.631 31.81 41.7518 33.6892C39.8725 35.5685 37.4782 36.8483 34.8715 37.3668C32.2649 37.8853 29.5631 37.6192 27.1077 36.6021C24.6523 35.5851 22.5537 33.8628 21.0771 31.653C19.6006 29.4432 18.8125 26.8452 18.8125 24.1875C18.8125 20.6237 20.2282 17.2058 22.7483 14.6858C25.2683 12.1657 28.6862 10.75 32.25 10.75ZM32.25 5.375C28.5292 5.375 24.892 6.47833 21.7983 8.54548C18.7046 10.6126 16.2934 13.5507 14.8695 16.9883C13.4457 20.4258 13.0731 24.2084 13.799 27.8576C14.5249 31.5069 16.3166 34.859 18.9476 37.4899C21.5785 40.1209 24.9306 41.9126 28.5799 42.6385C32.2291 43.3644 36.0117 42.9919 39.4492 41.568C42.8868 40.1441 45.8249 37.7329 47.892 34.6392C49.9592 31.5455 51.0625 27.9083 51.0625 24.1875C51.0625 19.1981 49.0805 14.4131 45.5525 10.8851C42.0244 7.35703 37.2394 5.375 32.25 5.375Z" fill="white"/>
<path d="M32.25 10.75C34.9077 10.75 37.5057 11.5381 39.7155 13.0146C41.9253 14.4912 43.6476 16.5898 44.6646 19.0452C45.6817 21.5006 45.9478 24.2024 45.4293 26.809C44.9108 29.4156 43.631 31.81 41.7518 33.6892C39.8725 35.5685 37.4782 36.8483 34.8715 37.3668C32.2649 37.8853 29.5631 37.6192 27.1077 36.6021C24.6523 35.5851 22.5537 33.8628 21.0771 31.653C19.6006 29.4432 18.8125 26.8452 18.8125 24.1875C18.8125 20.6237 20.2282 17.2058 22.7483 14.6858C25.2683 12.1657 28.6862 10.75 32.25 10.75ZM32.25 5.375C28.5292 5.375 24.892 6.47833 21.7983 8.54548C18.7046 10.6126 16.2934 13.5507 14.8695 16.9883C13.4457 20.4258 13.0731 24.2084 13.799 27.8576C14.5249 31.5069 16.3166 34.859 18.9476 37.4899C21.5785 40.1209 24.9306 41.9126 28.5799 42.6385C32.2291 43.3644 36.0117 42.9919 39.4492 41.568C42.8868 40.1441 45.8249 37.7329 47.892 34.6392C49.9592 31.5455 51.0625 27.9083 51.0625 24.1875C51.0625 19.1981 49.0805 14.4131 45.5525 10.8851C42.0244 7.35703 37.2394 5.375 32.25 5.375Z" stroke="black"/>
</svg>
