<svg width="78" height="85" viewBox="0 0 78 85" fill="none" xmlns="http://www.w3.org/2000/svg">
<path d="M38.9519 15.0052C41.5062 15.0052 43.5769 12.5428 43.5769 9.50519C43.5769 6.46762 41.5062 4.00519 38.9519 4.00519C36.3976 4.00519 34.3269 6.46762 34.3269 9.50519C34.3269 12.5428 36.3976 15.0052 38.9519 15.0052Z" stroke="white" stroke-width="3" stroke-miterlimit="10"/>
<path d="M14.3333 18.5L17.4965 29.7829C18.3004 32.6528 20.1689 32.9859 21.6472 30.5241L23.9778 26.6426C25.4562 24.1808 28.7322 22.4738 31.2556 22.8489L34.4111 23.3178C36.9345 23.6929 41.0655 23.6929 43.5889 23.3178L46.7444 22.8489C49.2678 22.4738 52.5438 24.1808 54.0222 26.6426L56.3528 30.5241C57.8312 32.9859 59.6997 32.6528 60.5035 29.7829L63.6667 18.5" stroke="white" stroke-width="3" stroke-miterlimit="10" stroke-linecap="round" stroke-linejoin="round"/>
<path d="M46.7083 47.8333L51.5532 50.1374C53.128 50.8876 54.254 53.1382 54.0568 55.1415L51.6931 79.0251C51.496 81.0284 49.9452 82.6666 48.25 82.6666C46.5548 82.6666 45.1667 81.0159 45.1667 79V62.5C45.1667 60.484 44.4726 58.8333 43.625 58.8333C42.7774 58.8333 40.6952 58.8333 39 58.8333C37.3048 58.8333 35.2226 58.8333 34.375 58.8333C33.5274 58.8333 32.8333 60.484 32.8333 62.5V79C32.8333 81.0159 31.4452 82.6666 29.75 82.6666C28.0548 82.6666 26.504 81.0284 26.3068 79.0251L23.9432 55.1415C23.746 53.1382 24.872 50.8876 26.4468 50.1374L31.2917 47.8333" stroke="white" stroke-width="3" stroke-miterlimit="10" stroke-linecap="round" stroke-linejoin="round"/>
<path d="M31.2917 47.8333C31.2917 47.8333 31.2917 46.1826 31.2917 44.1666C31.2917 42.1507 30.9454 38.4375 30.5208 35.9166C30.0963 33.3958 29.75 31.3333 29.75 31.3333" stroke="white" stroke-width="3" stroke-miterlimit="10" stroke-linecap="round" stroke-linejoin="round"/>
<path d="M46.7083 47.8333C46.7083 47.8333 46.7083 46.0286 46.7083 43.8229C46.7083 41.6172 47.0335 37.904 47.4311 35.5729C47.8285 33.2418 48.1536 31.3333 48.1536 31.3333" stroke="white" stroke-width="3" stroke-miterlimit="10" stroke-linecap="round" stroke-linejoin="round"/>
<path d="M8.16667 33.1667C8.16667 34.1746 7.47261 35 6.625 35H3.54167C2.69406 35 2 34.1746 2 33.1667V3.83333C2 2.82537 2.69406 2 3.54167 2H6.625C7.47261 2 8.16667 2.82537 8.16667 3.83333V33.1667Z" stroke="white" stroke-width="3" stroke-miterlimit="10" stroke-linecap="round" stroke-linejoin="round"/>
<path d="M76 33.1667C76 34.1746 75.3059 35 74.4583 35H71.375C70.5274 35 69.8333 34.1746 69.8333 33.1667V3.83333C69.8333 2.82537 70.5274 2 71.375 2H74.4583C75.3059 2 76 2.82537 76 3.83333V33.1667Z" stroke="white" stroke-width="3" stroke-miterlimit="10" stroke-linecap="round" stroke-linejoin="round"/>
<path d="M48.25 16.6666C54.4167 16.6666 69.8333 18.5 69.8333 18.5" stroke="white" stroke-width="3" stroke-miterlimit="10" stroke-linecap="round" stroke-linejoin="round"/>
<path d="M8.16667 18.5C8.16667 18.5 18.9583 16.6666 29.75 16.6666" stroke="white" stroke-width="3" stroke-miterlimit="10" stroke-linecap="round" stroke-linejoin="round"/>
</svg>
