<svg width="77" height="83" viewBox="0 0 77 83" fill="none" xmlns="http://www.w3.org/2000/svg">
<path d="M71.5387 26.6517C69.0299 30.2772 71.3876 33.4405 73.7505 37.0476C76.203 40.7919 74.8804 45.6743 71.2212 48.9077C70.9056 49.1067 70.6345 49.3687 70.4248 49.6772C70.215 49.9857 70.0711 50.3342 70.0021 50.7008C69.9331 51.0674 69.9405 51.4443 70.0237 51.808C70.107 52.1716 70.2643 52.5142 70.4859 52.8143C72.9753 58.0762 71.2019 63.1646 66.238 66.3211C65.2276 66.9918 64.4458 67.9547 63.9969 69.0813C63.323 71.2885 61.8959 73.1892 59.9643 74.4521C58.0327 75.7149 55.7191 76.2598 53.427 75.9919C52.8889 76.0161 52.3621 76.1541 51.8812 76.3968C51.4004 76.6394 50.9764 76.9812 50.6373 77.3996C47.7879 81.3413 44.0669 82.1199 39.9949 79.2388C39.5757 78.8358 39.016 78.6122 38.4346 78.6153C37.8531 78.6184 37.2958 78.848 36.8809 79.2554C32.9509 82.0952 29.0834 81.2729 26.2097 77.3678C25.8635 76.9505 25.4332 76.6109 24.947 76.371C24.4607 76.1311 23.9294 75.9964 23.3876 75.9756C21.1433 76.2704 18.8678 75.7506 16.9741 74.5108C15.0804 73.271 13.694 71.3932 13.0666 69.2184C12.6262 68.0715 11.842 67.0887 10.8215 66.4047C5.50594 63.0924 3.78567 57.848 6.64731 52.2474C7.45633 50.6639 6.99469 50.0439 5.90243 49.0873C4.71645 48.1766 3.75023 47.011 3.07515 45.6767C2.40007 44.3424 2.03339 42.8735 2.00217 41.3784C1.97096 39.8834 2.27603 38.4005 2.89483 37.0392C3.51363 35.6779 4.43036 34.473 5.5773 33.5135C6.12184 33.1297 6.50149 32.5546 6.64033 31.9031C6.77917 31.2515 6.66698 30.5716 6.32618 29.9992C4.05267 24.393 5.71461 19.8734 10.8199 16.5872C11.885 15.8259 12.6881 14.7535 13.1191 13.5173C13.7585 11.4419 15.1112 9.65941 16.938 8.48509C18.7648 7.31077 20.948 6.82025 23.1015 7.10026C23.7548 7.26502 24.445 7.19706 25.0536 6.90807C25.6622 6.61907 26.1511 6.12709 26.4362 5.5167C26.9149 4.64866 27.5784 3.89628 28.3796 3.31265C29.1809 2.72902 30.1005 2.32837 31.0735 2.13898C32.0466 1.94959 33.0493 1.97608 34.011 2.21658C34.9727 2.45707 35.8698 2.90571 36.6392 3.53083C36.8669 3.7699 37.1405 3.96067 37.4435 4.09178C37.7465 4.22288 38.0729 4.29163 38.403 4.29393C38.7332 4.29623 39.0605 4.23203 39.3653 4.10517C39.6701 3.9783 39.9463 3.79136 40.1773 3.55549C43.9396 0.852807 47.8432 1.77147 50.6257 5.53995C50.9972 5.98246 51.458 6.34155 51.9779 6.59371C52.4978 6.84587 53.0651 6.98542 53.6426 7.00325C55.9382 6.7705 58.2418 7.3593 60.1441 8.66497C62.0464 9.97065 63.4241 11.9086 64.0322 14.1343C64.5846 15.3172 65.4806 16.3062 66.6034 16.9723C68.2311 17.9816 69.5515 19.4172 70.4215 21.1234C71.2914 22.8297 71.6778 24.7415 71.5387 26.6517Z" stroke="white" stroke-width="3" stroke-miterlimit="10"/>
<path d="M38.5002 4.28491V78.619" stroke="white" stroke-width="3" stroke-miterlimit="10"/>
<path d="M27.8258 27.5377C27.8258 27.5377 35.6905 19.6307 38.5002 30.2466" stroke="white" stroke-width="3" stroke-linecap="round" stroke-linejoin="round"/>
<path d="M49.1746 27.5377C49.1746 27.5377 41.3099 19.6307 38.5002 30.2466" stroke="white" stroke-width="3" stroke-linecap="round" stroke-linejoin="round"/>
<path d="M54.78 21.5555C54.78 21.5555 60.1102 11.7595 49.1341 12.1002" stroke="white" stroke-width="3" stroke-linecap="round" stroke-linejoin="round"/>
<path d="M49.1746 53.2742C49.1746 53.2742 41.3099 61.1812 38.5002 50.5653" stroke="white" stroke-width="3" stroke-linecap="round" stroke-linejoin="round"/>
<path d="M51.1534 40.4463C51.1534 40.4463 59.0913 32.6127 61.8024 43.2541" stroke="white" stroke-width="3" stroke-linecap="round" stroke-linejoin="round"/>
<path d="M27.8258 53.2742C27.8258 53.2742 35.6905 61.1812 38.5002 50.5653" stroke="white" stroke-width="3" stroke-linecap="round" stroke-linejoin="round"/>
<path d="M66.6034 16.9724C66.6034 16.9724 64.0813 14.2964 55.9825 14.9495" stroke="white" stroke-width="3" stroke-linecap="round" stroke-linejoin="round"/>
<path d="M54.6622 60.6671C54.6622 60.6671 59.0999 70.8983 48.1976 69.583" stroke="white" stroke-width="3" stroke-linecap="round" stroke-linejoin="round"/>
<path d="M66.5232 66.136C66.5232 66.136 63.2825 68.7252 55.2739 67.3545" stroke="white" stroke-width="3" stroke-linecap="round" stroke-linejoin="round"/>
<path d="M22.6345 21.5555C22.6345 21.5555 17.3043 11.7595 28.2804 12.1002" stroke="white" stroke-width="3" stroke-linecap="round" stroke-linejoin="round"/>
<path d="M24.8695 40.4463C24.8695 40.4463 16.9316 32.6127 14.2207 43.2541" stroke="white" stroke-width="3" stroke-linecap="round" stroke-linejoin="round"/>
<path d="M10.7116 16.6586C10.7116 16.6586 13.3327 14.2967 21.4314 14.9497" stroke="white" stroke-width="3" stroke-linecap="round" stroke-linejoin="round"/>
<path d="M22.2436 60.6671C22.2436 60.6671 17.8058 70.8983 28.7081 69.583" stroke="white" stroke-width="3" stroke-linecap="round" stroke-linejoin="round"/>
<path d="M10.3833 66.136C10.3833 66.136 13.624 68.7252 21.6326 67.3545" stroke="white" stroke-width="3" stroke-linecap="round" stroke-linejoin="round"/>
</svg>
