<svg width="88" height="77" viewBox="0 0 88 77" fill="none" xmlns="http://www.w3.org/2000/svg">
<path d="M7.13514 26.2442C7.13514 12.627 16.2008 0 28.6147 0C37.2295 0 43.6218 5.6653 47.5676 13.7021C51.5131 5.66577 57.9054 0 66.5204 0C78.9358 0 88 12.6292 88 26.2442C88 55.3896 47.5676 76.1081 47.5676 76.1081C47.5676 76.1081 20.332 62.9966 10.5674 41.4894H34.6882L38.5221 34.6739L43.0004 50.3484L53.4876 36.8649H66.5946V32.1081H51.1611L44.9996 40.03L39.9644 22.4072L31.9064 36.7326H8.75205C9.25622 38.3604 9.86694 39.9465 10.5674 41.4894L0 41.4891V36.7324L8.75205 36.7326C7.72124 33.405 7.13514 29.9036 7.13514 26.2442Z" fill="white"/>
</svg>
