<svg width="75" height="77" viewBox="0 0 75 77" fill="none" xmlns="http://www.w3.org/2000/svg">
<path d="M37.4446 12.65C40.3855 12.65 42.7696 10.2659 42.7696 7.325C42.7696 4.38408 40.3855 2 37.4446 2C34.5037 2 32.1196 4.38408 32.1196 7.325C32.1196 10.2659 34.5037 12.65 37.4446 12.65Z" stroke="white" stroke-width="3" stroke-miterlimit="10"/>
<path d="M2 62.1836L12.2877 54.8912C16.2694 52.0676 19.8263 45.7753 20.192 40.9079L20.8611 31.9843C21.2268 27.1169 25.1201 22.3345 29.5125 21.3586C33.9049 20.3827 41.0951 20.3827 45.4875 21.3586C49.8799 22.3345 53.7732 27.1169 54.1389 31.9843L54.808 40.9079C55.1737 45.7753 58.7306 52.0676 62.7123 54.8912L73 62.1836" stroke="white" stroke-width="3" stroke-miterlimit="10" stroke-linecap="round" stroke-linejoin="round"/>
<path d="M25.075 55.0836C25.075 55.0836 25.4736 54.3106 25.9625 53.3642C26.4513 52.4176 26.9817 50.0533 27.1429 48.1067L28.625 30.2336" stroke="white" stroke-width="3" stroke-miterlimit="10" stroke-linecap="round" stroke-linejoin="round"/>
<path d="M25.075 73.6397C25.075 73.6397 23.8772 73.8581 22.4125 74.1234C20.9478 74.3904 18.1518 74.6087 16.2 74.6087H7.32499C5.3732 74.6087 3.77499 73.0105 3.77499 71.0587C3.77499 69.1069 5.17724 66.7442 6.89172 65.8083L13.5375 62.1837" stroke="white" stroke-width="3" stroke-miterlimit="10" stroke-linecap="round" stroke-linejoin="round"/>
<path d="M46.375 30.2336L47.8779 49.7691C48.027 51.7156 48.9491 54.1077 49.925 55.0836C50.9009 56.0595 53.1023 57.6231 54.8167 58.5591L68.1083 65.8082C69.8228 66.7442 71.225 69.1069 71.225 71.0586C71.225 73.0104 69.6268 74.6086 67.675 74.6086H58.8C56.8482 74.6086 53.69 74.262 51.785 73.839L42.74 71.8283C40.835 71.4053 37.734 70.6392 35.8498 70.1243L23.1752 66.668C21.2911 66.1531 20.0152 64.5359 20.3411 63.0711C20.667 61.6064 22.5286 60.4814 24.4788 60.5698L59.9822 62.1836" stroke="white" stroke-width="3" stroke-miterlimit="10" stroke-linecap="round" stroke-linejoin="round"/>
</svg>
